<svg xmlns="http://www.w3.org/2000/svg" width="74" height="53" viewBox="0 0 74 53"><g><g><path fill="#ffbe40" d="M17.5 52.588c-3.62 0-6.634-2.64-7.216-6.098H1.646a1.22 1.22 0 0 1-1.22-1.22V6.239c0-.674.547-1.22 1.22-1.22h46.342c.674 0 1.219.546 1.219 1.22v7.318h12.195c.415 0 .802.211 1.026.56l10.975 17.076c.127.196.194.427.194.66V45.27c0 .674-.545 1.22-1.22 1.22h-6.199c-.582 3.457-3.595 6.098-7.215 6.098-3.62 0-6.633-2.641-7.215-6.098H24.715c-.582 3.457-3.595 6.098-7.215 6.098zm0-14.637c3.62 0 6.633 2.642 7.216 6.1h22.052v-2.44H26.036v-2.44h20.732V12.337H5.305v-2.44h41.463V7.459H2.866v31.713h6.097v2.44H2.866v2.44h7.418c.582-3.458 3.596-6.1 7.216-6.1zm0 2.44a4.883 4.883 0 0 0-4.878 4.879 4.883 4.883 0 0 0 4.878 4.879 4.883 4.883 0 0 0 4.878-4.88 4.884 4.884 0 0 0-4.878-4.878zm41.463-2.44c3.62 0 6.633 2.642 7.215 6.1h4.98v-2.44H67.5v-2.44h3.658v-6.96l-.23-.358H52.865c-.674 0-1.219-.545-1.219-1.22V19.656c0-.673.545-1.22 1.22-1.22h9.438l-1.568-2.44h-11.53V44.05h2.542c.582-3.457 3.595-6.099 7.215-6.099zm0 2.44a4.883 4.883 0 0 0-4.878 4.879 4.883 4.883 0 0 0 4.878 4.879 4.883 4.883 0 0 0 4.878-4.88 4.884 4.884 0 0 0-4.878-4.878zm4.878-19.515h-9.756v8.537H69.36l-5.519-8.585zM16.281 44.05h2.439v2.44h-2.44zm41.463 0h2.439v2.44h-2.44zM5.305.14h17.073v2.44H5.305zM.427.14h2.439v2.44H.426z"/></g></g></svg>