<svg xmlns="http://www.w3.org/2000/svg" width="57" height="60" viewBox="0 0 57 60"><g><g><path fill="#ffbe40" d="M28.402 23.997a8.922 8.922 0 0 1-3.992-.938v2.523l3.992 3.996 3.992-3.996V23.06a8.923 8.923 0 0 1-3.992.937zm-17.77 3.994c-1.447 0-2.642.925-2.985 2.25l-3.179 12.74h4.968V30.99a1 1 0 0 1 .998-1h15.559l-2.962-2.964zm35.739 2c.552 0 .998.449.998 1V42.98h4.968l-3.18-12.746a2.993 2.993 0 0 0-2.898-2.24h-.006l-12.48-.967-2.961 2.965zM3.97 44.979l-1.691 6.776a4.97 4.97 0 0 0 .559 3.784 4.949 4.949 0 0 0 2.605 2.138v-5.704a3 3 0 0 1 3.993-2.826v-4.168zm11.455 14.987H6.441a.995.995 0 0 1-.401-.084 6.937 6.937 0 0 1-4.915-3.316 6.952 6.952 0 0 1-.783-5.296l5.37-21.519a4.994 4.994 0 0 1 4.834-3.754h.01l11.857-.925v-3.37a8.976 8.976 0 0 1-2.995-6.696v-9.99A4.999 4.999 0 0 1 24.41.018h7.985c2.752 0 4.991 2.24 4.991 4.995v9.991a8.976 8.976 0 0 1-2.995 6.697v3.37l11.936.927a5.003 5.003 0 0 1 4.763 3.743l5.373 21.529c.14.554.21 1.127.21 1.7 0 3.49-2.568 6.39-5.91 6.91a.995.995 0 0 1-.4.084H41.38a5.001 5.001 0 0 1-4.89-3.996H20.315a5 5 0 0 1-4.89 3.996zm39.252-6.994c0-.41-.051-.818-.15-1.215l-1.692-6.778H47.37v4.168a3 3 0 0 1 3.993 2.826v5.705a5.006 5.006 0 0 0 3.315-4.706zM21.415 15.005c0 3.857 3.134 6.994 6.987 6.994 3.854 0 6.988-3.137 6.988-6.994v-2.997h-6.988v2.997h.999v1.999h-1.997a.999.999 0 0 1-.998-1v-3.996h-4.991zm13.975-9.99a3 3 0 0 0-2.995-2.998H24.41a3 3 0 0 0-2.995 2.997v2a4.963 4.963 0 0 1 2.995-1h7.985c1.123 0 2.16.372 2.995 1.001zm-2.995 2.997H24.41a2.998 2.998 0 0 0-2.823 1.998h13.632a3 3 0 0 0-2.824-1.998zM7.44 57.967h7.985a3.002 3.002 0 0 0 2.825-1.998h-7.816a.999.999 0 0 1-.998-1v-2.997a1 1 0 0 0-.998-1 1 1 0 0 0-.998 1zM45.372 31.99H33.394v4.995h11.978zm-33.94 0v4.995h11.979V31.99zm0 21.98h33.94V38.983H33.394v4.996a.998.998 0 0 1-.999 1H24.41a.999.999 0 0 1-.999-1v-4.996H11.433zm29.946-3.996h1.997v1.998h-1.997zm-3.993 0h1.997v1.998h-1.997zm3.994 7.993h7.987v-5.995a1 1 0 0 0-1.997 0v2.997c0 .553-.446 1-.998 1h-7.816a3.001 3.001 0 0 0 2.824 1.998zM25.408 42.98h5.99v-3.996h-5.99zm0-5.995h5.99V31.99h-5.99z"/></g></g></svg>