<svg xmlns="http://www.w3.org/2000/svg" width="59" height="60" viewBox="0 0 59 60"><g><g><path fill="#ffbe40" d="M55.466 59.914H7.486c-3.858 0-6.996-3.14-6.996-6.996v-35.98a7.004 7.004 0 0 1 6.996-6.995h6.583L23.772.24a.999.999 0 0 1 1.414 0l2.792 2.792L30.77.24a.998.998 0 0 1 1.412 0l2.792 2.792L37.766.24a.999.999 0 0 1 1.414 0l9.703 9.702h6.583a1 1 0 0 1 .999 1v6.581l1.706 1.707a.999.999 0 0 1 0 1.413l-1.823 1.822c.075.14.117.3.117.47v10.993h1c.552 0 1 .447 1 1V46.92c0 .553-.448 1-1 1h-1v10.993c0 .553-.447 1-1 1zM24.479 2.36L5.372 21.466c.642.301 1.359.47 2.114.47h1.586l17.492-17.49zm-8.41 19.575L33.56 4.446 31.476 2.36 11.899 21.936zm-8.583-9.994a5.005 5.005 0 0 0-4.52 2.865 7.589 7.589 0 0 1 3.52-.866l.003 1.999a5.606 5.606 0 0 0-3.106.94l-.868.577a4.979 4.979 0 0 0 1.238 2.8l4.733-4.732v-1.584h1.585l2-2zm46.98 11.993H7.486A6.978 6.978 0 0 1 2.49 21.83v2.567l.892.593c.925.615 2 .94 3.107.942l-.002 2a7.608 7.608 0 0 1-3.997-1.14v25.589l.893.593c.923.615 1.998.94 3.106.942l-.002 1.999a7.584 7.584 0 0 1-3.52-.867 5.005 5.005 0 0 0 4.52 2.866h46.98v-1.999h-3.998v-1.999h3.998v-5.996H45.47c-3.858 0-6.997-3.14-6.997-6.996 0-3.857 3.14-6.996 6.997-6.996h8.996v-5.997h-3.998v-1.999h3.998zm0-11.993h-3.584l3.584 3.584zM45.47 35.928a5.003 5.003 0 0 0-4.998 4.997 5.003 5.003 0 0 0 4.998 4.997h10.995v-9.994zm0 7.995a3.002 3.002 0 0 1-2.999-2.998 3.002 3.002 0 0 1 2.999-2.999 3.002 3.002 0 0 1 2.998 2.999 3.002 3.002 0 0 1-2.998 2.998zm0-3.998a1 1 0 1 0 0 2 1 1 0 0 0 0-2zM56.05 19.937l-3.524-3.524a6.117 6.117 0 0 0-.798 5.523h2.323zM43.427 7.315a8.003 8.003 0 0 1-4.954 1.7 8.009 8.009 0 0 1-4.955-1.7l-14.622 14.62h6.713a9.436 9.436 0 0 1 5.022-4.383 9.442 9.442 0 0 1 7.271.24 9.5 9.5 0 0 1 4.44 4.144h7.304a8.128 8.128 0 0 1 1.452-6.951zm-4.954-4.954l-3.527 3.527a6.025 6.025 0 0 0 3.526 1.128A6.022 6.022 0 0 0 42 5.887zm5.997 23.572h3.998v2H44.47zm-5.997 0h3.998v2h-3.998zm-5.997 0h3.998v2h-3.998zm-5.998 0h3.998v2h-3.998zm-5.997 0h3.998v2H20.48zm-5.997 0h3.998v2h-3.998zm-5.998 0h3.998v2H8.486zM44.47 53.917h3.998v1.999H44.47zm-5.997 0h3.998v1.999h-3.998zm-5.997 0h3.998v1.999h-3.998zm-5.998 0h3.998v1.999h-3.998zm-5.997 0h3.998v1.999H20.48zm-5.997 0h3.998v1.999h-3.998zm-5.998 0h3.998v1.999H8.486zm28.59-34.305c-3.258-1.477-7.032-.423-9.1 2.324h11.999a7.498 7.498 0 0 0-2.898-2.324z"/></g></g></svg>