<svg xmlns="http://www.w3.org/2000/svg" fill-rule="evenodd" clip-rule="evenodd" width="70" height="81" viewBox="0 0 340 393">
  <defs/>
  <path fill="#e4ba4e" d="M169.949 0c93.886 0 169.94 76.054 169.94 169.94 0 20.077-3.543 39.208-9.92 57.159H308.83c7.204-17.715 11.219-36.964 11.219-57.159 0-82.903-67.197-150.218-150.1-150.218-82.904 0-150.218 67.315-150.218 150.218 0 20.195 4.015 39.444 11.337 57.159H9.811C3.433 209.148.009 190.017.009 169.94.009 76.054 76.062 0 169.949 0z"/>
  <path fill="#e4ba4e" fill-rule="nonzero" d="M47.719 297.012H26.108l-3.779 8.739c-.827 2.125-1.299 3.779-1.299 4.842 0 .826.354 1.535 1.181 2.243.826.591 2.48 1.063 5.196 1.181v1.536H9.811v-1.536c2.362-.354 3.897-.944 4.605-1.535 1.299-1.299 2.953-4.015 4.606-8.03l19.604-45.822h1.299l19.368 46.294c1.653 3.779 3.07 6.141 4.251 7.204 1.299 1.181 3.071 1.771 5.315 1.889v1.536H47.011v-1.536c2.126-.118 3.661-.472 4.488-1.063.708-.59 1.062-1.417 1.062-2.361 0-1.181-.472-3.071-1.535-5.669l-3.307-7.912zm-1.299-3.071l-9.329-22.438-9.684 22.438H46.42zM108.657 287.091c3.779.827 6.731 2.126 8.621 4.016 2.716 2.48 4.015 5.55 4.015 9.211 0 2.716-.945 5.433-2.598 7.913-1.771 2.598-4.133 4.369-7.204 5.55-3.07 1.181-7.676 1.772-13.935 1.772H71.339v-1.536h2.007c2.362 0 4.016-.708 4.96-2.243.709-.945.945-2.953.945-6.023v-36.02c0-3.543-.354-5.668-1.181-6.613-1.063-1.181-2.598-1.771-4.724-1.771h-2.007v-1.536h23.973c4.488 0 8.031.355 10.747 1.063 4.133.945 7.204 2.716 9.329 5.196 2.244 2.48 3.307 5.433 3.307 8.621 0 2.835-.827 5.315-2.598 7.559-1.653 2.125-4.133 3.779-7.44 4.841zm-21.493-2.243c1.062.118 2.125.354 3.424.354 1.299.118 2.716.236 4.37.236 3.897 0 6.968-.472 8.975-1.299 2.008-.945 3.543-2.244 4.606-4.015 1.063-1.772 1.535-3.661 1.535-5.787 0-3.189-1.299-6.023-3.897-8.267-2.716-2.243-6.613-3.424-11.692-3.424-2.716 0-5.196.236-7.321.826v21.376zm0 26.689a43.693 43.693 0 009.447 1.063c4.96 0 8.739-1.063 11.337-3.307 2.599-2.243 3.898-4.96 3.898-8.266 0-2.126-.591-4.252-1.772-6.259-1.181-2.008-3.188-3.543-5.787-4.724-2.716-1.181-6.022-1.654-9.92-1.654h-4.251c-1.299.119-2.244.237-2.952.355v22.792zM143.141 289.453v16.298c0 3.424.354 5.668 1.063 6.495 1.063 1.181 2.716 1.771 4.724 1.771h2.125v1.536h-23.855v-1.536h2.126c2.362 0 4.015-.708 5.078-2.243.59-.827.827-2.835.827-6.023v-36.02c0-3.543-.355-5.668-1.063-6.613-1.181-1.181-2.716-1.771-4.842-1.771h-2.126v-1.536h20.431c4.96 0 8.975.591 11.809 1.536 2.835 1.062 5.315 2.834 7.322 5.196 1.89 2.48 2.953 5.314 2.953 8.739 0 4.487-1.536 8.267-4.606 11.101-2.953 2.834-7.204 4.251-12.636 4.251-1.299 0-2.835-.118-4.37-.354-1.535-.118-3.189-.472-4.96-.827zm0-2.362c1.417.237 2.716.473 3.779.591 1.181.118 2.126.236 2.952.236 2.835 0 5.197-1.063 7.322-3.307 2.008-2.243 3.071-5.078 3.071-8.502 0-2.481-.472-4.724-1.535-6.732-.945-2.008-2.362-3.543-4.134-4.606-1.771-1.063-3.897-1.535-6.141-1.535-1.417 0-3.188.236-5.314.709v23.146zM204.315 258.63c7.204 0 13.463 2.717 18.777 8.149 5.314 5.55 7.912 12.4 7.912 20.549 0 8.503-2.716 15.47-8.03 21.139-5.314 5.55-11.692 8.385-19.368 8.385-7.558 0-14.053-2.717-19.249-8.267-5.197-5.432-7.795-12.4-7.795-21.139 0-8.739 3.071-15.943 8.975-21.612 5.315-4.842 11.574-7.204 18.778-7.204zm-.827 2.953c-4.96 0-8.857 1.771-11.928 5.55-3.661 4.606-5.55 11.337-5.55 20.195 0 9.093 1.889 16.061 5.787 20.903 2.952 3.779 6.849 5.668 11.809 5.668 5.196 0 9.448-2.125 12.873-6.141 3.424-4.133 5.078-10.51 5.078-19.368 0-9.447-1.89-16.533-5.551-21.257-3.07-3.779-7.204-5.55-12.518-5.55zM251.553 289.453v16.298c0 3.424.354 5.668 1.063 6.495 1.063 1.181 2.598 1.771 4.724 1.771h2.126v1.536H235.61v-1.536h2.126c2.362 0 4.015-.708 5.078-2.243.472-.827.827-2.835.827-6.023v-36.02c0-3.543-.355-5.668-1.181-6.613-1.063-1.181-2.598-1.771-4.724-1.771h-2.126v-1.536h20.431c4.96 0 8.975.591 11.809 1.536 2.835 1.062 5.315 2.834 7.204 5.196 2.008 2.48 2.953 5.314 2.953 8.739 0 4.487-1.417 8.267-4.488 11.101-2.952 2.834-7.204 4.251-12.636 4.251-1.299 0-2.835-.118-4.37-.354-1.535-.118-3.188-.472-4.96-.827zm0-2.362c1.417.237 2.716.473 3.779.591 1.181.118 2.126.236 2.953.236 2.834 0 5.196-1.063 7.322-3.307 2.007-2.243 3.07-5.078 3.07-8.502 0-2.481-.472-4.724-1.535-6.732-.945-2.008-2.362-3.543-4.134-4.606-1.771-1.063-3.897-1.535-6.141-1.535-1.417 0-3.188.236-5.314.709v23.146zM308.712 297.012h-21.494l-3.779 8.739c-.945 2.125-1.417 3.779-1.417 4.842 0 .826.472 1.535 1.299 2.243.709.591 2.48 1.063 5.196 1.181v1.536h-17.596v-1.536c2.362-.354 3.897-.944 4.488-1.535 1.417-1.299 2.952-4.015 4.723-8.03l19.486-45.822h1.417l19.368 46.294c1.535 3.779 2.953 6.141 4.252 7.204 1.299 1.181 3.07 1.771 5.314 1.889v1.536h-21.966v-1.536c2.244-.118 3.779-.472 4.488-1.063.826-.59 1.181-1.417 1.181-2.361 0-1.181-.591-3.071-1.654-5.669l-3.306-7.912zm-1.181-3.071l-9.448-22.438-9.566 22.438h19.014zM49.018 336.337l-3.07 13.582h-1.063l-.118-3.425c-.118-1.181-.354-2.362-.709-3.307-.472-.945-.944-1.771-1.771-2.48-.709-.709-1.653-1.299-2.834-1.653-1.063-.473-2.362-.591-3.779-.591-3.661 0-6.968.945-9.684 2.953-3.543 2.598-6.259 6.259-8.267 10.864-1.653 3.898-2.598 7.795-2.598 11.81 0 4.015 1.299 7.322 3.661 9.684 2.362 2.48 5.432 3.661 9.329 3.661 2.835 0 5.433-.709 7.677-1.89 2.244-1.299 4.369-3.306 6.259-5.904h1.417c-2.244 3.542-4.724 6.141-7.44 7.912-2.834 1.653-6.141 2.48-9.92 2.48-3.425 0-6.495-.709-9.094-2.126-2.598-1.417-4.605-3.424-6.022-6.023-1.418-2.598-2.008-5.314-2.008-8.384 0-4.488 1.181-8.976 3.661-13.345 2.362-4.252 5.787-7.677 10.038-10.157 4.252-2.48 8.503-3.661 12.873-3.661 2.007 0 4.369.473 6.849 1.418 1.063.472 1.89.708 2.362.708.472 0 .945-.118 1.299-.354s1.063-.827 1.89-1.772h1.062zM61.419 351.218l-4.016 13.935c1.89-3.307 3.425-5.787 4.724-7.44 2.008-2.48 3.897-4.37 5.787-5.551 1.181-.59 2.362-.944 3.543-.944 1.063 0 1.889.354 2.598 1.062.708.709 1.063 1.536 1.063 2.599 0 .944-.236 2.243-.709 3.897l-2.362 7.676c3.543-6.259 6.85-10.629 10.038-13.109 1.772-1.417 3.425-2.125 5.197-2.125.944 0 1.771.354 2.48 1.062.59.709.944 1.772.944 3.307 0 1.181-.236 2.362-.59 3.779l-3.897 11.81c-.827 2.598-1.299 4.015-1.299 4.251 0 .355.118.591.236.709.118.236.354.236.472.236.236 0 .591-.118.945-.59 1.063-.827 2.126-2.008 3.071-3.543l.944.708c-.472.827-1.299 1.89-2.598 3.307s-2.362 2.362-3.188 2.834c-.945.473-1.772.709-2.48.709-.709 0-1.299-.236-1.772-.709a2.901 2.901 0 01-.59-1.771c0-1.063.472-2.953 1.417-6.023l3.188-9.802c.827-2.362 1.181-3.543 1.181-3.779.118-.473.118-.827.118-1.181 0-.472-.118-.945-.354-1.181a1.023 1.023 0 00-.827-.472c-.944 0-2.007.472-3.07 1.299-2.952 2.598-5.905 6.259-8.503 10.983-1.771 3.188-3.425 7.085-4.96 11.927h-4.724l5.669-18.659c.59-2.008.945-3.307.945-4.015 0-.473-.119-.945-.355-1.181-.236-.236-.59-.473-.826-.473-.709 0-1.536.355-2.244.827-1.299.709-2.953 2.48-4.96 5.078-1.89 2.716-3.543 5.196-4.606 7.558-.472 1.181-1.771 4.724-3.779 10.865h-4.488l5.787-19.958.709-2.598c.118-.354.236-.591.236-.827 0-.472-.236-.826-.709-1.181-.354-.354-.945-.59-1.535-.59-.236 0-1.063.118-2.244.354l-.236-1.063 10.629-2.007zM125.19 351.69l-5.904 20.903-.709 2.716c-.118.354-.118.591-.118.709 0 .354 0 .59.236.826.118.119.236.237.354.237.237 0 .473-.118.827-.473.472-.59 1.299-1.771 2.244-3.661l1.063.827c-1.181 2.008-2.48 3.543-3.779 4.606-1.181.944-2.362 1.417-3.425 1.417-.827 0-1.299-.236-1.772-.591-.354-.472-.59-1.181-.59-2.007 0-.945.236-2.244.709-3.897l.59-2.362c-2.952 3.543-5.669 6.023-8.149 7.322-1.771 1.062-3.542 1.535-5.196 1.535-1.653 0-3.07-.591-4.251-1.772-1.181-1.299-1.772-2.952-1.772-5.078 0-3.188 1.063-6.613 3.189-10.156 2.008-3.543 4.724-6.495 8.03-8.621 2.599-1.653 4.96-2.48 7.204-2.48 1.417 0 2.48.236 3.425.827.945.59 1.535 1.653 2.008 3.07l1.063-3.188 4.723-.709zm-11.337 1.535c-1.417 0-2.952.591-4.606 1.772-2.243 1.771-4.251 4.251-6.022 7.676-1.772 3.307-2.717 6.377-2.717 9.093 0 1.417.473 2.48 1.181 3.189.827.827 1.772 1.299 2.717 1.299 2.598 0 5.314-1.653 8.266-4.96 3.661-4.252 5.433-8.739 5.315-13.227 0-1.771-.355-2.952-1.063-3.779-.827-.708-1.772-1.063-3.071-1.063zM141.133 364.444c2.717.118 4.724.827 6.023 2.008 1.299 1.299 2.008 2.834 2.008 4.606 0 2.362-1.181 4.369-3.425 6.141-2.362 1.771-5.078 2.598-8.385 2.598-6.495 0-9.802-3.307-9.802-9.92 0-4.842 1.772-9.212 5.315-12.991 3.424-3.779 7.558-5.668 12.4-5.668 2.362 0 4.015.472 5.196 1.299 1.063.826 1.653 1.889 1.653 3.306 0 3.189-3.661 6.023-10.983 8.621zm-7.322.827c4.842-1.181 8.503-2.716 10.629-4.37 2.244-1.653 3.425-3.424 3.425-5.314 0-.708-.354-1.417-.827-2.007-.472-.709-1.299-.945-2.362-.945-4.251 0-7.912 4.133-10.865 12.636zm-.59 1.771c-.591 1.89-.945 3.78-.945 5.905 0 2.008.473 3.425 1.417 4.252.945.944 2.126 1.299 3.543 1.299 1.89 0 3.543-.709 4.724-2.244 1.299-1.653 1.89-3.425 1.89-5.551 0-1.417-.473-2.598-1.418-3.542-.826-.945-2.007-1.418-3.424-1.418-1.772 0-3.661.473-5.787 1.299zM166.878 351.218l-2.007 7.085c2.244-2.598 4.251-4.487 6.023-5.55 1.653-1.063 3.542-1.535 5.314-1.535 1.889 0 3.425.708 4.724 2.125 1.299 1.536 1.889 3.425 1.889 5.669 0 4.488-1.771 9.093-5.55 13.817-3.661 4.606-7.913 6.968-12.755 6.968-1.062 0-2.007-.118-2.716-.354a10.593 10.593 0 01-2.716-1.181l-2.244 8.03c-.472 1.535-.708 2.598-.708 3.071 0 .354.118.826.354 1.062.236.355.59.591 1.181.827.472.118 1.535.236 3.188.236l-.354 1.181h-14.526l.355-1.181c1.889-.118 3.188-.354 3.897-.944.59-.591 1.299-2.244 2.007-4.842l7.795-26.926c.472-1.772.708-2.835.708-3.189 0-.59-.118-1.063-.472-1.299-.236-.354-.827-.472-1.417-.472-.591 0-1.417 0-2.48.236v-1.299l10.51-1.535zm-7.085 24.564c1.299 1.535 3.07 2.361 5.196 2.361 1.063 0 2.244-.354 3.306-.944 1.181-.591 2.244-1.417 3.307-2.598 1.063-1.181 2.008-2.599 2.953-4.134.826-1.535 1.535-3.306 2.243-5.314.709-2.126.945-4.133.945-6.259 0-1.535-.354-2.834-1.063-3.661-.826-.945-1.653-1.417-2.716-1.417-2.244 0-4.488 1.299-6.731 3.897-2.244 2.598-3.779 5.55-4.842 8.975l-2.598 9.094zM213.762 360.901c0 3.071-.826 6.023-2.48 9.094-1.653 2.952-3.897 5.432-6.849 7.204-2.953 1.771-5.787 2.598-8.503 2.598-2.834 0-5.078-.827-6.85-2.716-1.771-1.772-2.716-4.134-2.716-6.968 0-2.952.945-6.023 2.598-9.093 1.772-2.953 4.134-5.433 6.968-7.204 2.952-1.772 5.787-2.598 8.503-2.598 2.598 0 4.842.944 6.613 2.716 1.772 1.771 2.716 4.015 2.716 6.967zm-5.078-2.243c0-1.89-.472-3.425-1.417-4.37-.945-1.063-2.126-1.535-3.661-1.535-3.07 0-5.787 2.126-8.385 6.495-2.48 4.37-3.779 8.621-3.779 12.873 0 2.007.473 3.542 1.417 4.605 1.063 1.063 2.244 1.536 3.78 1.536 2.952 0 5.668-2.126 8.148-6.496 2.598-4.251 3.897-8.621 3.897-13.108zM230.06 351.218l-4.016 13.935c4.016-5.669 7.204-9.448 9.33-11.219 2.244-1.772 4.37-2.716 6.377-2.716 1.063 0 2.008.354 2.716 1.062.709.827 1.063 1.772 1.063 2.953 0 1.181-.354 2.834-1.063 4.96l-4.251 12.754c-.472 1.536-.709 2.48-.709 2.716 0 .355.118.591.237.709.118.236.354.354.472.354.236 0 .472-.118.827-.472.944-.827 2.007-2.126 3.188-3.897l.945.59c-1.89 2.716-3.543 4.606-5.196 5.669-1.181.827-2.126 1.181-3.071 1.181-.708 0-1.299-.236-1.653-.709-.472-.472-.709-1.063-.709-1.771 0-.945.355-2.716 1.181-5.078l4.134-12.4c.472-1.536.826-2.717.826-3.543 0-.473-.236-.827-.472-1.063-.354-.236-.709-.354-1.063-.354-.708 0-1.417.236-2.244.708-1.653.945-3.425 2.48-5.196 4.606s-3.661 4.842-5.669 8.149c-1.062 1.653-1.889 3.66-2.598 5.668l-1.417 5.078h-4.606l5.551-19.368c.59-2.243.945-3.66.945-4.133 0-.472-.118-.827-.473-1.181-.354-.236-.826-.472-1.417-.472-.236 0-.59 0-1.181.118l-1.181.236-.354-1.181 10.747-1.889zM276.826 360.901c0 3.071-.827 6.023-2.48 9.094-1.654 2.952-3.897 5.432-6.85 7.204-2.834 1.771-5.668 2.598-8.503 2.598-2.716 0-5.078-.827-6.849-2.716-1.772-1.772-2.598-4.134-2.598-6.968 0-2.952.826-6.023 2.598-9.093a19.4 19.4 0 016.967-7.204c2.835-1.772 5.669-2.598 8.385-2.598s4.96.944 6.732 2.716c1.771 1.771 2.598 4.015 2.598 6.967zm-5.078-2.243c0-1.89-.473-3.425-1.418-4.37-.944-1.063-2.125-1.535-3.542-1.535-3.071 0-5.905 2.126-8.385 6.495-2.598 4.37-3.897 8.621-3.897 12.873 0 2.007.59 3.542 1.535 4.605.945 1.063 2.244 1.536 3.779 1.536 2.834 0 5.55-2.126 8.149-6.496 2.48-4.251 3.779-8.621 3.779-13.108zM285.092 351.926h17.951l-6.023 20.903c-.472 1.535-.59 2.598-.59 2.953 0 .59.236.826.708.826.355 0 .827-.236 1.417-.826.473-.591 1.181-1.654 2.126-3.189l1.063.59c-1.535 2.362-2.834 4.016-4.015 5.079-1.181 1.062-2.48 1.535-3.779 1.535-1.654 0-2.48-.827-2.48-2.716 0-.827.472-2.717 1.299-5.551l5.078-17.832h-3.897c-1.536 0-2.598.118-2.953.354-.354.118-.708.59-1.063 1.299-.354.709-.826 2.48-1.535 5.314-2.244 8.031-4.015 13.227-5.432 15.589-1.536 2.362-3.189 3.543-5.078 3.543-2.008 0-2.953-.827-2.953-2.362 0-.709.118-1.181.591-1.653.354-.473.826-.709 1.535-.709.59 0 1.299.236 1.889.827.473.354.827.472 1.181.472.709 0 1.299-.472 2.008-1.535.827-1.063 1.89-4.37 3.543-9.92 1.535-5.551 2.362-8.739 2.362-9.566 0-1.299-1.063-2.008-3.189-2.244l.236-1.181zM314.616 365.743c2.953-3.07 6.023-4.605 9.212-4.605 1.889 0 3.661.708 4.96 2.007 1.417 1.181 2.126 2.835 2.126 4.96 0 3.071-1.299 5.787-4.016 8.149-2.716 2.362-5.904 3.543-9.683 3.543-3.071 0-5.315-.709-6.732-2.126-1.417-1.535-2.126-3.07-2.126-4.96 0-.945.237-2.362.827-4.369l3.425-10.629c.236-.945.354-1.653.354-2.362 0-.945-.59-1.535-1.889-1.535-.473 0-1.418.118-2.717.354l.355-1.063 9.447-1.889h.945l-4.488 14.525zm6.968-1.771c-2.126 0-4.133.945-6.023 2.952-1.771 1.89-2.716 4.134-2.716 6.614 0 1.299.354 2.598 1.299 3.543.945 1.062 2.008 1.535 3.307 1.535 2.125 0 4.015-1.063 5.668-3.071 1.654-2.125 2.48-4.487 2.48-7.203 0-1.418-.354-2.481-1.181-3.189-.708-.827-1.653-1.181-2.834-1.181z"/>
  <path fill="none" stroke="#e4ba4e" stroke-width="1.41" d="M49.018 336.337l-3.07 13.582h-1.063l-.118-3.425c-.118-1.181-.354-2.362-.709-3.307-.472-.945-.944-1.771-1.771-2.48-.709-.709-1.653-1.299-2.834-1.653-1.063-.473-2.362-.591-3.779-.591-3.661 0-6.968.945-9.684 2.953-3.543 2.598-6.259 6.259-8.267 10.864-1.653 3.898-2.598 7.795-2.598 11.81 0 4.015 1.299 7.322 3.661 9.684 2.362 2.48 5.432 3.661 9.329 3.661 2.835 0 5.433-.709 7.677-1.89 2.244-1.299 4.369-3.306 6.259-5.904h1.417c-2.244 3.542-4.724 6.141-7.44 7.912-2.834 1.653-6.141 2.48-9.92 2.48-3.425 0-6.495-.709-9.094-2.126-2.598-1.417-4.605-3.424-6.022-6.023-1.418-2.598-2.008-5.314-2.008-8.384 0-4.488 1.181-8.976 3.661-13.345 2.362-4.252 5.787-7.677 10.038-10.157 4.252-2.48 8.503-3.661 12.873-3.661 2.007 0 4.369.473 6.849 1.418 1.063.472 1.89.708 2.362.708.472 0 .945-.118 1.299-.354s1.063-.827 1.89-1.772h1.062zM61.419 351.218l-4.016 13.935c1.89-3.307 3.425-5.787 4.724-7.44 2.008-2.48 3.897-4.37 5.787-5.551 1.181-.59 2.362-.944 3.543-.944 1.063 0 1.889.354 2.598 1.062.708.709 1.063 1.536 1.063 2.599 0 .944-.236 2.243-.709 3.897l-2.362 7.676c3.543-6.259 6.85-10.629 10.038-13.109 1.772-1.417 3.425-2.125 5.197-2.125.944 0 1.771.354 2.48 1.062.59.709.944 1.772.944 3.307 0 1.181-.236 2.362-.59 3.779l-3.897 11.81c-.827 2.598-1.299 4.015-1.299 4.251 0 .355.118.591.236.709.118.236.354.236.472.236.236 0 .591-.118.945-.59 1.063-.827 2.126-2.008 3.071-3.543l.944.708c-.472.827-1.299 1.89-2.598 3.307s-2.362 2.362-3.188 2.834c-.945.473-1.772.709-2.48.709-.709 0-1.299-.236-1.772-.709a2.901 2.901 0 01-.59-1.771c0-1.063.472-2.953 1.417-6.023l3.188-9.802c.827-2.362 1.181-3.543 1.181-3.779.118-.473.118-.827.118-1.181 0-.472-.118-.945-.354-1.181a1.023 1.023 0 00-.827-.472c-.944 0-2.007.472-3.07 1.299-2.952 2.598-5.905 6.259-8.503 10.983-1.771 3.188-3.425 7.085-4.96 11.927h-4.724l5.669-18.659c.59-2.008.945-3.307.945-4.015 0-.473-.119-.945-.355-1.181-.236-.236-.59-.473-.826-.473-.709 0-1.536.355-2.244.827-1.299.709-2.953 2.48-4.96 5.078-1.89 2.716-3.543 5.196-4.606 7.558-.472 1.181-1.771 4.724-3.779 10.865h-4.488l5.787-19.958.709-2.598c.118-.354.236-.591.236-.827 0-.472-.236-.826-.709-1.181-.354-.354-.945-.59-1.535-.59-.236 0-1.063.118-2.244.354l-.236-1.063 10.629-2.007zM125.19 351.69l-5.904 20.903-.709 2.716c-.118.354-.118.591-.118.709 0 .354 0 .59.236.826.118.119.236.237.354.237.237 0 .473-.118.827-.473.472-.59 1.299-1.771 2.244-3.661l1.063.827c-1.181 2.008-2.48 3.543-3.779 4.606-1.181.944-2.362 1.417-3.425 1.417-.827 0-1.299-.236-1.772-.591-.354-.472-.59-1.181-.59-2.007 0-.945.236-2.244.709-3.897l.59-2.362c-2.952 3.543-5.669 6.023-8.149 7.322-1.771 1.062-3.542 1.535-5.196 1.535-1.653 0-3.07-.591-4.251-1.772-1.181-1.299-1.772-2.952-1.772-5.078 0-3.188 1.063-6.613 3.189-10.156 2.008-3.543 4.724-6.495 8.03-8.621 2.599-1.653 4.96-2.48 7.204-2.48 1.417 0 2.48.236 3.425.827.945.59 1.535 1.653 2.008 3.07l1.063-3.188 4.723-.709zm-11.337 1.535c-1.417 0-2.952.591-4.606 1.772-2.243 1.771-4.251 4.251-6.022 7.676-1.772 3.307-2.717 6.377-2.717 9.093 0 1.417.473 2.48 1.181 3.189.827.827 1.772 1.299 2.717 1.299 2.598 0 5.314-1.653 8.266-4.96 3.661-4.252 5.433-8.739 5.315-13.227 0-1.771-.355-2.952-1.063-3.779-.827-.708-1.772-1.063-3.071-1.063zM141.133 364.444c2.717.118 4.724.827 6.023 2.008 1.299 1.299 2.008 2.834 2.008 4.606 0 2.362-1.181 4.369-3.425 6.141-2.362 1.771-5.078 2.598-8.385 2.598-6.495 0-9.802-3.307-9.802-9.92 0-4.842 1.772-9.212 5.315-12.991 3.424-3.779 7.558-5.668 12.4-5.668 2.362 0 4.015.472 5.196 1.299 1.063.826 1.653 1.889 1.653 3.306 0 3.189-3.661 6.023-10.983 8.621zm-7.322.827c4.842-1.181 8.503-2.716 10.629-4.37 2.244-1.653 3.425-3.424 3.425-5.314 0-.708-.354-1.417-.827-2.007-.472-.709-1.299-.945-2.362-.945-4.251 0-7.912 4.133-10.865 12.636zm-.59 1.771c-.591 1.89-.945 3.78-.945 5.905 0 2.008.473 3.425 1.417 4.252.945.944 2.126 1.299 3.543 1.299 1.89 0 3.543-.709 4.724-2.244 1.299-1.653 1.89-3.425 1.89-5.551 0-1.417-.473-2.598-1.418-3.542-.826-.945-2.007-1.418-3.424-1.418-1.772 0-3.661.473-5.787 1.299zM166.878 351.218l-2.007 7.085c2.244-2.598 4.251-4.487 6.023-5.55 1.653-1.063 3.542-1.535 5.314-1.535 1.889 0 3.425.708 4.724 2.125 1.299 1.536 1.889 3.425 1.889 5.669 0 4.488-1.771 9.093-5.55 13.817-3.661 4.606-7.913 6.968-12.755 6.968-1.062 0-2.007-.118-2.716-.354a10.593 10.593 0 01-2.716-1.181l-2.244 8.03c-.472 1.535-.708 2.598-.708 3.071 0 .354.118.826.354 1.062.236.355.59.591 1.181.827.472.118 1.535.236 3.188.236l-.354 1.181h-14.526l.355-1.181c1.889-.118 3.188-.354 3.897-.944.59-.591 1.299-2.244 2.007-4.842l7.795-26.926c.472-1.772.708-2.835.708-3.189 0-.59-.118-1.063-.472-1.299-.236-.354-.827-.472-1.417-.472-.591 0-1.417 0-2.48.236v-1.299l10.51-1.535zm-7.085 24.564c1.299 1.535 3.07 2.361 5.196 2.361 1.063 0 2.244-.354 3.306-.944 1.181-.591 2.244-1.417 3.307-2.598 1.063-1.181 2.008-2.599 2.953-4.134.826-1.535 1.535-3.306 2.243-5.314.709-2.126.945-4.133.945-6.259 0-1.535-.354-2.834-1.063-3.661-.826-.945-1.653-1.417-2.716-1.417-2.244 0-4.488 1.299-6.731 3.897-2.244 2.598-3.779 5.55-4.842 8.975l-2.598 9.094zM213.762 360.901c0 3.071-.826 6.023-2.48 9.094-1.653 2.952-3.897 5.432-6.849 7.204-2.953 1.771-5.787 2.598-8.503 2.598-2.834 0-5.078-.827-6.85-2.716-1.771-1.772-2.716-4.134-2.716-6.968 0-2.952.945-6.023 2.598-9.093 1.772-2.953 4.134-5.433 6.968-7.204 2.952-1.772 5.787-2.598 8.503-2.598 2.598 0 4.842.944 6.613 2.716 1.772 1.771 2.716 4.015 2.716 6.967zm-5.078-2.243c0-1.89-.472-3.425-1.417-4.37-.945-1.063-2.126-1.535-3.661-1.535-3.07 0-5.787 2.126-8.385 6.495-2.48 4.37-3.779 8.621-3.779 12.873 0 2.007.473 3.542 1.417 4.605 1.063 1.063 2.244 1.536 3.78 1.536 2.952 0 5.668-2.126 8.148-6.496 2.598-4.251 3.897-8.621 3.897-13.108zM230.06 351.218l-4.016 13.935c4.016-5.669 7.204-9.448 9.33-11.219 2.244-1.772 4.37-2.716 6.377-2.716 1.063 0 2.008.354 2.716 1.062.709.827 1.063 1.772 1.063 2.953 0 1.181-.354 2.834-1.063 4.96l-4.251 12.754c-.472 1.536-.709 2.48-.709 2.716 0 .355.118.591.237.709.118.236.354.354.472.354.236 0 .472-.118.827-.472.944-.827 2.007-2.126 3.188-3.897l.945.59c-1.89 2.716-3.543 4.606-5.196 5.669-1.181.827-2.126 1.181-3.071 1.181-.708 0-1.299-.236-1.653-.709-.472-.472-.709-1.063-.709-1.771 0-.945.355-2.716 1.181-5.078l4.134-12.4c.472-1.536.826-2.717.826-3.543 0-.473-.236-.827-.472-1.063-.354-.236-.709-.354-1.063-.354-.708 0-1.417.236-2.244.708-1.653.945-3.425 2.48-5.196 4.606s-3.661 4.842-5.669 8.149c-1.062 1.653-1.889 3.66-2.598 5.668l-1.417 5.078h-4.606l5.551-19.368c.59-2.243.945-3.66.945-4.133 0-.472-.118-.827-.473-1.181-.354-.236-.826-.472-1.417-.472-.236 0-.59 0-1.181.118l-1.181.236-.354-1.181 10.747-1.889zM276.826 360.901c0 3.071-.827 6.023-2.48 9.094-1.654 2.952-3.897 5.432-6.85 7.204-2.834 1.771-5.668 2.598-8.503 2.598-2.716 0-5.078-.827-6.849-2.716-1.772-1.772-2.598-4.134-2.598-6.968 0-2.952.826-6.023 2.598-9.093a19.4 19.4 0 016.967-7.204c2.835-1.772 5.669-2.598 8.385-2.598s4.96.944 6.732 2.716c1.771 1.771 2.598 4.015 2.598 6.967zm-5.078-2.243c0-1.89-.473-3.425-1.418-4.37-.944-1.063-2.125-1.535-3.542-1.535-3.071 0-5.905 2.126-8.385 6.495-2.598 4.37-3.897 8.621-3.897 12.873 0 2.007.59 3.542 1.535 4.605.945 1.063 2.244 1.536 3.779 1.536 2.834 0 5.55-2.126 8.149-6.496 2.48-4.251 3.779-8.621 3.779-13.108zM285.092 351.926h17.951l-6.023 20.903c-.472 1.535-.59 2.598-.59 2.953 0 .59.236.826.708.826.355 0 .827-.236 1.417-.826.473-.591 1.181-1.654 2.126-3.189l1.063.59c-1.535 2.362-2.834 4.016-4.015 5.079-1.181 1.062-2.48 1.535-3.779 1.535-1.654 0-2.48-.827-2.48-2.716 0-.827.472-2.717 1.299-5.551l5.078-17.832h-3.897c-1.536 0-2.598.118-2.953.354-.354.118-.708.59-1.063 1.299-.354.709-.826 2.48-1.535 5.314-2.244 8.031-4.015 13.227-5.432 15.589-1.536 2.362-3.189 3.543-5.078 3.543-2.008 0-2.953-.827-2.953-2.362 0-.709.118-1.181.591-1.653.354-.473.826-.709 1.535-.709.59 0 1.299.236 1.889.827.473.354.827.472 1.181.472.709 0 1.299-.472 2.008-1.535.827-1.063 1.89-4.37 3.543-9.92 1.535-5.551 2.362-8.739 2.362-9.566 0-1.299-1.063-2.008-3.189-2.244l.236-1.181zM314.616 365.743c2.953-3.07 6.023-4.605 9.212-4.605 1.889 0 3.661.708 4.96 2.007 1.417 1.181 2.126 2.835 2.126 4.96 0 3.071-1.299 5.787-4.016 8.149-2.716 2.362-5.904 3.543-9.683 3.543-3.071 0-5.315-.709-6.732-2.126-1.417-1.535-2.126-3.07-2.126-4.96 0-.945.237-2.362.827-4.369l3.425-10.629c.236-.945.354-1.653.354-2.362 0-.945-.59-1.535-1.889-1.535-.473 0-1.418.118-2.717.354l.355-1.063 9.447-1.889h.945l-4.488 14.525zm6.968-1.771c-2.126 0-4.133.945-6.023 2.952-1.771 1.89-2.716 4.134-2.716 6.614 0 1.299.354 2.598 1.299 3.543.945 1.062 2.008 1.535 3.307 1.535 2.125 0 4.015-1.063 5.668-3.071 1.654-2.125 2.48-4.487 2.48-7.203 0-1.418-.354-2.481-1.181-3.189-.708-.827-1.653-1.181-2.834-1.181z"/>
  <path fill="#e4ba4e" fill-rule="nonzero" d="M197.229 173.601H135.11l-10.746 25.155c-2.716 6.141-4.016 10.864-4.016 13.935 0 2.362 1.181 4.606 3.425 6.377 2.362 1.89 7.44 3.071 15.117 3.661v4.37H88.344v-4.37c6.614-1.181 10.983-2.716 12.991-4.606 4.015-3.779 8.385-11.573 13.345-23.146l56.332-132.032h4.015l55.741 133.449c4.488 10.746 8.621 17.714 12.282 20.903 3.661 3.188 8.739 4.96 15.353 5.432v4.37h-63.3v-4.37c6.377-.354 10.747-1.417 12.991-3.188 2.244-1.89 3.307-4.016 3.307-6.732 0-3.425-1.536-8.857-4.724-16.415l-9.448-22.793zm-3.661-8.739l-27.044-64.717-27.753 64.717h54.797z"/>
  <path fill="#e4ba4e" stroke="#434242" stroke-width=".9" d="M100.863 170.058c1.653.118 3.897.591 5.432.591 1.181 0 2.834-1.654 3.543-2.48l5.196-6.85c-.236 1.063-3.307 5.433-4.251 6.85-.709 1.181-1.299 2.598-.945 4.369.354 1.299.827 2.835 1.535 3.779.591-.118.591-.236 1.181-.354.709-.236 2.716-.236 3.779-.708 2.008-.945 5.078-9.33 6.732-10.983-.236 1.062-1.063 2.598-1.536 3.542-1.771 3.78-2.125 4.724-.59 7.559.472 1.181 1.181 2.362 1.653 3.306 1.181-.354 1.654-.944 2.835-1.299 2.598-.708 2.952 1.181 4.605-5.314.118-.591.118-1.063.591-1.535.118 5.078 1.417 4.015 3.307 5.668.59.591.472 1.063 1.535 1.181.708-1.417 2.126-1.889 3.188-2.834 1.418-1.299 1.181-7.558 1.299-9.684.473.236.591.591 1.063.945 1.181-.709 3.307-3.307 4.134-3.779 1.181.708 2.598 1.417 3.779 2.362 0 2.125.472 12.4.118 13.108-.827 1.417-4.37 2.598-6.377 2.598-2.717 0-2.835-.826-4.016-.59l.945 1.181c0 .118.118.118.118.118l.236.354c-.826.473-2.007.591-2.952.945-8.267 3.543-4.251 9.448-4.488 12.164 0 .827-.708 1.89-1.417 2.126-1.063.472-1.771-.591-2.362.944 2.008 2.244 4.96 3.543 7.322 1.181.473-.472.355-.472.827-.708.945 1.063.827 2.126.472 3.543-.354 1.889-1.181 1.653-1.417 3.07 2.008 0 3.189-1.653 4.134-2.952.472-.473 0-.118.708-.473.118.827-.236 2.244 0 2.717.472-.118.354-.118.709-.709.354-.472.944-1.889 1.417-2.244.118 1.654.118 2.126-2.008 3.425-3.07 1.89-13.463 5.551-17.36 4.842-3.07-.591-.472-5.669-4.488-6.613-2.716-.591-2.125 1.181-4.369 1.062-.709-.472-2.008-2.598-1.653-3.542.708-2.008.236-2.008-1.418-3.189 0-1.417-.236-1.89-1.181-2.598-1.299-1.063-.708-.709-.472-2.362-.118-.709-1.535-.945-2.244-2.598-.354-1.063-.945-2.126-1.417-3.189l-5.787-12.636c-2.362-5.078 0-3.425-1.063-5.196-.354-.591-.944-.355-1.417-.827.237-.827.945-1.417.355-2.362-.473-.59-1.063-1.063-1.418-1.653 3.071.59 2.244-.473 4.724-.945-.118.709-.354.827-.59 1.417-.236.827-.236 5.315-.236 6.259zm55.269-81.722c1.181-.709 8.384-2.362 12.163-5.905 1.181-1.181 4.016.591 7.795-.236 1.535-.354 1.181-.354 2.126.354.59.473 1.299.709 1.771 1.181 2.244 1.535 3.425 1.89 6.141 2.952 1.771.591 4.015.945 4.606 1.181l-.591.119c-6.731.708-5.905-1.3-8.621-1.89.709 3.307 4.606 4.842 5.078 5.905l-3.779.354c.118 1.535 3.425 1.772 4.724 2.598-1.535 1.417-2.716 2.362-4.96 3.071-1.535.472-3.897.236-5.55-.118-.473-.118-.945-.355-1.418-.355 0 .709.473 1.181.945 1.536 1.654 1.653 3.071 2.007 5.669 2.243-.236.827-1.89 2.717-2.598 3.661-1.772 2.598-2.953 5.197-4.134 8.149-.59 1.181-1.181 2.952-1.889 4.133-.591-.826-1.181-3.424-1.654-4.605-3.306-8.621-5.668-9.802-6.495-11.81 1.89.118 4.96-.472 5.551-1.771-.118 0 .118 0-.473-.119-.236-.118-.118-.118-.472-.118-4.133-.354-1.89-.236-5.433-1.417-2.007-.708-3.66-1.771-4.723-3.07.59-.236 4.133-2.008 4.251-2.362l-3.779-.118c.709-.355 2.126-1.417 2.598-1.89.473-.59 1.653-1.653 2.008-2.48-1.181-.118-2.835.709-4.134.827-1.299.236-3.661.59-4.723 0zm19.485 154.824h.709c1.299-1.299 1.417-.473 2.834-2.598l.945-1.063c.236-.473.354-.591.709-.945 1.299.236 1.653 1.063 3.543 1.063 3.661.118 7.085-2.48 8.266-5.787 2.835.473 3.425 4.252 8.503 2.008 2.48-1.063 3.543-4.252 3.897-7.558 2.953 1.771 1.063 1.062 2.008 3.543.354 1.18 1.653 2.834 2.952 2.48.118-1.063-.59-.473-.354-1.89 0-.59.236-1.299.472-1.771 1.181-2.599 2.126-4.724.709-7.322-.59-1.063-1.535-1.654-2.126-2.717.473-1.062 1.299-1.299 1.772-2.598.354-1.181 0-2.598-.591-3.425-.826-1.535-2.834-3.66-5.314-3.07.59.945 1.771 1.063.472 2.834-.944 1.181-1.889.945-3.306.355-2.244-1.063-3.898-2.362-6.023-3.307-3.071-1.417-10.275-3.425-12.282-6.377.59.118 1.181.354 1.771.472 5.315.827 2.953 1.417 4.488 2.362.827-1.417-.709-3.543-1.653-4.251-1.3-.945-2.717-1.772-3.661-2.835-2.48-2.834-.237-7.204 1.889-8.739 2.598-2.007 7.676-2.007 9.212.945.944 1.653.354 3.543-.709 4.606-2.126 2.243-3.425.118-4.488.59-.472.945 1.417 2.362 2.126 2.834 1.417.945 1.89 1.063 4.015 1.181.237 1.063-.944 2.48-1.063 3.898-.118 2.243 1.181 1.889 3.071 1.889 1.417.118 2.952.472 4.488.591 4.723.354 8.148 1.417 12.636 2.362 1.299.236 2.952.472 4.251.708 2.48.709 7.204 4.842 10.629 4.015.59-.118 1.299-.472 1.89-.708 1.771-.827 3.897-1.063 5.786-1.535 1.417-.473 1.772-1.418 3.071-2.008 1.181-.709 2.48-.709 3.188-1.653 1.181-1.418-.59-1.89 1.181-3.661 1.063-1.181 1.536-1.181 1.89-3.071l1.653.236c-.118-2.362 1.299-1.889 1.535-3.661-.708-.944-1.299-.708-1.062-2.362l-1.181-.118c-.237-9.329-9.33-8.503-9.802-12.164 1.417 0 1.299.709 2.716.827l-.236-5.55c-.591 0-1.418.826-2.126 1.062-.118-.708.59-1.181.708-2.125l-6.141.236c0 .59.591 1.653.709 2.244l-2.244-1.181.355 6.023c.708-.118 1.062-.355 1.417-.709.354 1.535-1.89 1.771-2.953 2.362-1.299.59-2.362 1.299-2.952 2.244-1.063 1.417-2.244 3.306-2.834 5.078-.473 1.535.118.709-1.299 1.181 0 .708.118 1.535-.355 2.008-.472.354-.945.472-.945 1.299 0 .944 1.063 2.125 1.418 3.07h2.007c.355.591.945 1.417 1.181 2.362-1.063 1.535-4.133 2.362-5.905 2.362-2.716-.118-10.628-2.362-12.872-3.543-2.008-1.063-2.952-3.897-1.535-5.314 1.063 1.181.826 2.952 2.598 3.543l.118-2.362c.59.354 1.181 1.417 1.771 1.889.709.591 1.536.945 2.717 1.063-.355-1.299-1.3-1.417-1.772-2.834-.354-1.063-.472-2.953.118-3.779 1.063.59 2.48 2.48 4.606 2.125.827-.118 1.771-.59 2.362-1.062.827-.591 1.299-.945 1.063-2.126-1.299.236-2.008.708-2.835-.591-1.417-2.598.827-5.668-.472-9.684-1.299-4.015-5.905-5.078-9.684-5.078.236-.944.945-.708.827-1.771-2.126.59-2.834 1.535-5.551.827-1.417-.355-3.543-1.299-4.015-2.48-.472-1.181-.59-11.692-.118-12.401.827-.826 2.48-.118 3.425-.708.708-.472.826-1.653 1.653-2.244.591.354 1.063 1.772 4.252 2.834.354-.236.354-.354.826-.59.709 3.661-1.653 9.329 2.48 11.337.473.118 1.181.473 1.417.827.591.472.473.826 1.181.945.709-.591.237-.945 1.181-1.654 1.89-1.181 3.189-2.362 3.189-5.078 0-2.008-2.362-7.794-.945-8.975.591 1.063 1.772 8.03 2.008 9.802.945 4.606 1.889 4.369 6.023 5.668.59-.354 2.716-2.48 3.07-3.424.473-1.654-.236-3.779-.708-5.197-.827-2.362-3.425-6.849-3.661-9.211 1.417 1.535 3.306 7.086 4.369 9.093 2.48 5.078 1.772 4.96 8.149 5.433.826-2.362 4.369-4.252-.945-10.157-.59-.59-1.063-1.299-1.653-2.007-1.417-1.772-3.071-3.307-4.252-5.196-.708-1.181-.354-1.063-.236-1.181.591.354 2.48 2.952 3.189 3.661 2.007 2.243 4.015 5.314 6.141 7.44 1.181 1.181 1.771 2.48 4.487 2.125.591-.118 2.362-.472 2.835-.708.708-.473.59-2.008.59-2.835 0-2.598-1.063-3.424-2.362-4.487l-5.668-4.488c-.591-.472-1.3-.945-1.772-1.535 1.299.472 2.834 1.653 3.897 2.362 2.244 1.299 5.433 4.251 7.913 4.488 1.535.236 4.133-.237 5.196-.827.118-.709-.236-3.543-.591-4.252-.708-1.535-1.771-2.598-1.889-2.834 1.771-.236 3.897.354 5.314-.118 1.063-.354 2.598-1.771 3.071-2.48.708-.945.236-1.181-.236-2.008-.945-1.417-1.772-2.716-3.425-3.424l-.945-.591c3.543-.709 7.912-2.244 8.267-5.787l-3.189-1.771c-1.181-.591-2.244-.945-3.425-1.535 1.417-.827 3.779-1.299 5.078-2.244.473-.236.591-.591 1.063-.945 1.063-.827 2.126-1.535 2.244-3.189-3.897-2.007-8.857-1.889-9.92-2.361.827-.709 2.244-1.299 3.189-1.772 1.535-.827 4.133-2.952 5.314-4.488 1.063-1.417 1.063-1.889 1.771-2.952v-.236c-2.48-2.48-8.857.236-11.809.59.236-.472.236-.472.59-.826.355-.237.473-.355.709-.591.472-.472.827-.945 1.299-1.417a26.996 26.996 0 002.598-2.598c1.181-1.181 3.661-5.078 3.543-6.968-4.252-1.063-9.566 2.953-13.345 3.897.354-.472.591-.59 1.063-.944l6.613-6.378c2.953-3.779 3.071-11.219 1.89-11.927-1.535-.118-2.008 1.417-2.834 2.244-1.181 1.062-1.654 1.653-2.599 2.48-1.417 1.417-10.038 9.565-11.809 11.101-1.299 1.063-2.48 2.48-4.015 3.424l8.266-9.329c.355-.354.473-.591.827-.945 1.535-1.417 2.48-3.307 3.897-4.842 2.362-2.48 4.252-6.023 4.488-9.684.118-3.188-2.48-8.975-4.488-9.684-.59.827-.945 2.48-1.417 3.543-.591 1.063-1.181 2.244-1.771 3.307-.709 1.063-1.3 2.126-1.89 3.307-1.299 2.716-8.031 12.4-10.511 14.171-.708-.472-.354-.59-1.181-.945-.826.591-1.18 2.362-1.653 3.189-.708 1.653-4.488 6.968-6.023 7.676l-.354-.826c-.591.354-2.598 2.716-3.425 3.661-.354.472-.708.59-1.063 1.062l-7.204 6.614c-2.007 1.771-5.668 5.905-4.723 8.857.708 2.126 3.07 2.952 4.133 5.078 1.299 2.362.118 5.314-1.299 6.614-2.244 2.243-7.558 2.834-10.393.826-.708-.59-2.125-1.299-2.361-2.126 1.653-1.299 4.133-1.181 5.078-3.661.826-2.125.472-5.786-1.299-6.731-1.063 2.008-1.654 4.015-4.724 3.779-3.307-.118-2.953-1.417-4.252-2.126-.59-.236-.826-.354-1.063-.944 2.48-.473 2.835.236 5.079-1.299.944-.591 3.07-2.126 2.48-3.661-.709-.119-1.181.708-2.599.826-2.952.236-6.259-1.063-7.321-4.015-1.536-4.37 1.299-8.621 3.306-10.983.591-.709 2.953-3.307 4.015-3.425.827 0 1.181 1.417 2.599.709.944-.473.354-1.063 2.125-1.654 1.89-.59 4.606-.59 6.259.355 1.772 1.181 1.418 3.306 1.654 5.786 1.889-.118 2.007-3.188 1.889-4.605 0-1.063-.59-1.536-1.181-2.126-.59-.59-.708-.945-1.771-1.299.236-.118-.236-.236.59-.118.591 0 1.299.59 1.654.827 2.244 1.417 3.661 3.07 6.731 3.188 4.134 0 6.495-4.251 6.495-6.731-1.535.118-1.417 1.889-2.952 2.716-3.425 2.126-5.787-.236-8.267-1.181-1.299-.591-2.952-.591-4.251-1.181.236-.354.59-.472.945-.591 4.605-1.889 7.44 1.418 8.148 1.299.709-.236 3.307-4.487 1.772-7.912-.591-1.299-1.654-1.771-2.953-2.244-1.889-.826-2.48-.472-4.487-.472-.237-.473-.709-1.063-1.299-1.417-.709-.355-1.181 0-1.181-.945 2.362-.472 3.779-.236 6.023-1.417 1.181-.591 3.07-2.126 3.897-3.189 3.425-4.015-.945-9.211.826-11.809.473-.237 1.063.118 1.89.472 1.535.59 4.015 1.063 4.96 2.244.472.59 1.417 2.244.945 3.425-.236.708-1.417 2.243-1.89 2.834-1.417 2.244-1.771 4.96-.118 7.322.827 1.181 1.417 1.535 1.063 3.425-.354 2.007-1.89 1.653-2.008 2.834 2.48 1.181 5.315-1.299 6.141-2.598 2.126-3.661-1.535-4.606-1.889-6.141 1.063.354.826.945 2.48 1.181 1.417.236 2.244-.355 3.425-.236.59.354.472 1.535.944 2.007 1.536-.59 2.126-3.779 1.299-5.314-1.181-2.126-3.897-.236-5.196-1.535-.118-.827.236-1.299.591-1.89.944-1.181 2.952-2.598 2.598-4.369-.591-2.717-2.716-3.661-5.315-4.016-2.834-.354-3.661-2.244-4.96-4.251-2.48-3.779-11.573-1.654-12.282 2.48-.826 4.369 5.551 10.628 2.244 14.053-1.063 1.181-4.133 2.953-6.377 2.716-.118-3.188 3.071-6.141 2.244-8.975-.591-1.889-.945-2.362-2.834-2.952-.709-.236-1.418-.473-2.362-.591-.473-.118-.709-.118-1.181.118-1.772.591-.473-.59-.945-2.243l-.354-2.244 1.181.354.354-3.307c-.472.118-.709.355-1.181.355l.118-.473v-.118l-3.661-.354.472 1.063-1.417-.236.236 3.188 1.3-.354c0 1.653.118 3.543-.473 4.842-.945-.709-.118-.709-2.48-.473-.945 0-1.771.118-2.362.591-5.078 3.543 1.772 9.566.827 12.4-1.181 0-4.96-1.063-5.905-1.417-2.126-.945-4.251-2.244-5.669-3.779-.826-.945-2.007-1.772-2.952-2.598-1.889-1.536 0-3.307.709-5.079 1.063-2.834 5.55-11.337 1.417-13.935-.827-.472-1.417-1.063-2.244-1.417-1.535-.709-4.251-1.535-6.023-1.181-.354.827.354 1.299-.945 1.299-.236-.59.237-.354-.472-1.181l-.709-.708c.118-.473 1.418-1.654.118-4.016-.236-.59-.472-.59-.708-1.063l2.598.827c.118-1.181.472-3.897.236-4.842-1.417-.118-1.181.473-2.362.945.709-2.244 1.063-2.244-3.543-2.244l.591 2.126c-.945-.118-1.653-.827-2.716-.945v4.488l2.952-.236c-.709 1.653-2.834 1.417-.709 4.96-.236.354-.472.59-.826.944-.354.355-.473.709-.945.827-.236-.827 0-1.299-1.063-1.417-3.779-.354-9.447 2.126-9.211 7.676.118 2.598 1.771 4.724 2.716 6.85l.708 1.771c1.536 3.071 1.063 1.89 1.772 5.433-2.598 2.125-2.244 2.952-6.141 4.96-1.063.708-6.141 4.015-7.44 3.306-.591-.59 1.181-5.55 1.299-8.503.118-1.181.59-.944-.354-1.889-1.181-1.417-2.598-2.716-4.842-2.598l-.591 1.181c-1.063-.473-.826-1.063-.708-2.126.118-.709-.591-2.48 0-2.598.59-.118.944.236 1.535.236.236-1.063-.118-2.834-.118-4.015l-1.654.472c.119-.472.473-.945.473-1.417-1.181-.118-1.299.354-2.126.354-1.063 0-2.362-1.653-1.653 1.181l-.945-.236c-.945-.118-.354-.118-.59.118-.473.591.118 2.953.472 3.543l1.063-.472c.236 1.062-.118 1.181-.355 2.007-.354 1.181.119 1.063.355 1.89-2.126 0-.473.826-1.063 1.771-1.063.118-.472-.354-1.063-1.181-1.299-.236-2.834.591-3.543 1.181-3.425 2.716 1.063 8.031.827 10.865-2.126.236-5.787-1.771-6.85-3.543-.59-1.181-.708-2.952-.354-4.369.709-2.598 3.425-2.953 3.543-6.732.118-3.543-3.543-4.487-4.606-5.432-.472-.473-.236-.473-.59-.827-.473-.472-.237-.118-.709-.472-.59-.355-.354-.945-1.417-1.181-2.834-.355-5.433 2.716-6.377 4.015-1.772 2.952-2.126 3.307-6.259 3.897-2.717.473-5.078 2.362-4.016 5.669.709 2.244 4.134 4.133 4.016 6.141-1.772.708-1.418-.118-3.189-.118-2.952-.237-2.598 2.952-1.771 4.724.236.59.826 2.243 1.771 1.771.236-.709-.118-.591-.236-1.181-1.063-2.716 2.834-1.063 3.897-1.063 1.535-.118 1.89-.827 2.952-1.299-.118.945-1.299 2.008-1.889 2.834-1.417 2.008-.354 5.433 2.244 5.905 1.181.236 3.424.354 3.188-1.063-.944-.236-1.299.355-1.653-.708-1.063-2.598 2.598-5.669 3.07-8.621.237-1.654-.236-2.716-1.181-3.661-.944-.945-1.417-1.299-1.889-2.953-.354-1.181-.236-2.952.472-3.897.709-.827 2.126-1.063 3.307-1.535.827-.354 2.598-1.535 3.071-1.417 1.889 1.771-3.543 7.204.118 12.4 2.48 3.425 6.495 3.188 11.219 4.369-.591.827-1.417-.236-2.48 1.536-1.181 1.889-2.362.118-4.842 1.653-.827.472-2.126 1.771-2.48 2.716-.827 2.126.236 6.732 2.598 7.322 1.063-2.007 3.07-2.362 5.787-2.007 1.535.236 5.314.59 6.259 2.007-5.197-1.063-5.433-.945-9.92 1.181-7.086 3.425-5.787-.472-8.976-.472 0 .945.827 1.535 1.181 2.007.827.945.473 1.181 1.654 1.89 7.794 5.078 8.857-2.598 13.817-2.952-.473.472-1.89 1.18-2.598 1.771-1.772 1.653-2.008 6.023-.473 5.787 1.063 0 .591-1.772 1.299-2.953.945-1.417 3.661-2.48 6.141-2.48 1.772.118 2.008.591 3.307.945 2.244.59 2.008-.945 3.425.118 2.952 2.244 5.905 5.433 6.613 10.629.473 3.425.118 4.842-1.889 6.495-1.417 1.181-2.716 1.653-4.724 1.535-.709 0-.591 0-.945-.118-1.771-.472-.827 1.535 1.181 2.716 1.299.591 2.126.709 3.661 1.181-.354 1.181-3.07 2.362-4.724 2.362-3.188.118-3.306-1.771-4.724-2.362-2.48 1.772-1.535 5.669 1.299 7.677 1.063.708 1.772.59 2.717 1.062-.355 2.126-2.953 3.543-4.96 3.898-2.48.354-5.905-.237-7.204-1.654-.236-.236-.118-.236-.355-.59-.708-.827-.944-1.063-1.299-2.244-1.653-5.196 2.717-4.96 3.543-9.093 1.063-5.079-4.369-8.858-6.849-10.747l-3.779-3.071c-.473-.354-.709-.708-1.063-1.063a15.597 15.597 0 01-2.126-2.598c-.472-.826-.945-2.243-1.889-2.48l-.473 1.299c-1.535-.708-4.015-3.188-4.96-4.369-2.598-2.834-1.771-4.134-3.07-6.259l-.591.354c-.118.118-.236.354-.354.472-.354.591-.354.591-.945.827-.472-1.063-3.543-4.369-4.606-5.55-1.417-1.772-2.952-3.661-4.369-5.551-1.417-2.008-2.716-3.897-4.016-6.023-.59-1.063-1.062-2.244-1.653-3.307-.354-.59-.708-1.062-.945-1.535-.354-.945.118-1.063-.708-1.771-1.181-.473-3.661 3.07-4.134 5.787-1.062 5.904 1.89 10.038 4.96 14.407 1.418 1.89 2.717 3.897 4.134 5.551-.709-.118-5.551-4.606-6.614-5.669l-3.306-2.834c-.709-.827-1.772-2.834-3.307-2.834-.827 1.18-1.535 4.723-1.181 6.259 1.181 4.015 4.37 6.967 7.322 9.447.236.355.591.709.827.945.708.827.945.827 1.535 1.89-1.89-.827-3.779-2.008-6.023-2.953-.945-.354-2.244-.945-3.425-1.181-2.007-.354-2.007.591-3.424.827.118 2.952 2.598 5.55 3.897 7.086.59.826.708.708 1.535 1.299.709.708.59.826 1.181 1.417.708.827 2.716 1.181 3.07 2.244-1.889.118-4.251-.709-6.377-.709-1.181 0-2.244.118-3.425.118-1.535 0-1.653.236-2.125 1.299 1.063 2.48 2.716 4.252 4.96 5.551l6.849 3.543c-3.07.236-8.385.118-10.628 1.771.118 1.299 1.063 1.89 1.653 2.598 4.724 4.606 5.432 2.835 8.385 4.606-1.772.472-2.598.472-4.252 1.299-.708.354-3.188 1.653-3.543 2.008-.354.944.237 2.243.709 2.834 2.834 3.897 4.842 2.362 7.44 3.425-.236.354-.945.826-1.299.945-.472.236-.354.354-.827.118-.354-.118-.236-.355-.59-.355-.236.237-.709 1.063-.945 1.654-.354.708.118.944 0 1.771-.945.118-.236.118-.827-.236-.944-.709-.708.354-.944 1.063-.118.472-.236.59-.355 1.063 1.181 1.181 1.063.708.473 2.598-.473.236-1.417.472-2.008.59-1.063.118-1.417-.236-2.244-.118-.944 1.653.709 3.661 1.417 4.488 3.78 4.133 5.197 1.889 5.669 3.897.236 1.417 0 1.299 1.417 1.653.827.118.827.236 1.181.473.473.118 1.181-.473 2.716 1.535-.118.945-.944 1.181-.354 2.126.473.944 1.063.354 1.772.826.472.355 4.251 11.101 4.605 12.4.591 2.244 1.654 4.016 2.362 6.141.945 2.362 0 1.654.118 3.543.118 1.181 1.417 1.417 2.244 1.89.118 1.889-.472 2.007.827 3.307-.118 1.299-.709.944 0 2.361.708 1.536.708.591 1.889 1.299.473.827.591 2.362.591 3.543-.118 1.536-.945 1.418-2.126 2.126-.708.472-1.653 1.653-.945 2.834.709 1.181 1.418 1.181 2.48 1.89-.472 3.307 0 2.716 2.953 3.543l-.236 1.889c1.299.945 2.716 2.48 4.133 3.071 0 1.417-.472 1.535.472 2.598.827.945 2.717 2.126 3.897 2.716.827.473.945 1.181 2.362.591 1.772-.709 1.418-2.598 1.536-4.842.354-3.425-1.89-2.126-2.126-4.488.354-.59 2.362-2.008 3.07-2.598 1.654-1.299 1.299-1.181 3.543-1.771 1.299-.473 2.48-1.063 4.016-1.418 1.417-.472 2.834-.826 4.133-1.181 1.535-.472 2.952-.708 4.488-1.062 2.243-.355 7.44-.709 9.802-.591 1.535 0 3.424-.354 4.133-1.299.118-1.535-2.244-2.244-2.48-5.196 2.48.118 3.188.118 4.842-1.063.708-.472 2.716-2.126 2.362-3.189-1.417 0-2.362 2.126-4.96.118-1.181-.944-2.008-2.952-1.063-4.96.472-.944.945-1.417 1.417-2.007.709-.945.945-1.063 2.48-1.063 2.952 0 3.307.236 5.078 1.653 1.89 1.417 5.551 5.905 2.48 9.094-2.126 2.243-4.133 1.653-5.432 4.96-.473 1.299-.591 1.063-.118 2.48l-1.417.472c-.473.236-.827.472-1.3.591-1.535.944-2.834 2.007-4.251 3.07-1.653 1.181-4.37 4.606-6.85 3.897-.944-.354-1.535-1.299-1.653-2.244-.118-1.181.591-1.653.827-2.834-1.063.236-2.362 1.063-3.071 1.653-.826.827-1.299 1.299-1.771 2.717-1.535 3.897 1.417 5.432 1.889 6.495-.708 1.181-1.653 1.063-2.243 2.834-1.89 5.078 2.834 7.913 3.188 8.739.354.945-.236 1.063.709 1.654 2.125-.827-.827-5.551 2.125-6.496.355 3.425 1.772 5.079 4.016 6.496 4.724 2.834 6.023-.355 7.44-.709 1.063 1.535.945 1.417 2.244 2.48 2.48 1.89 4.251 2.008 7.203 2.008 2.48-.118 2.244-.945 3.898-1.181.236 1.063 1.771 2.48 2.716 3.306.59.591 1.299.945 2.007 1.536z"/>
  <path fill="#e4ba4e" fill-rule="nonzero" stroke="#2b2a29" stroke-width=".22" d="M197.229 173.601h-48.065c0-3.07-.118-6.968-.236-8.739h44.64l-19.84-47.711c.59-1.181 1.181-2.834 1.771-4.015 1.181-2.952 2.362-5.551 4.134-8.149.708-.944 2.362-2.834 2.598-3.661-2.598-.236-4.015-.59-5.669-2.243-.472-.355-.945-.827-.945-1.536.473 0 .945.237 1.418.355 1.653.354 4.015.59 5.55.118 2.244-.709 3.425-1.654 4.96-3.071-1.299-.826-4.606-1.063-4.724-2.598l3.779-.354c-.472-1.063-4.369-2.598-5.078-5.905 1.89.472 2.008 1.417 4.015 1.89l8.74 21.021-.473.472c-2.007 2.362-4.842 6.613-3.306 10.983 1.062 2.952 4.369 4.251 7.321 4.015 1.3-.118 1.89-.945 2.599-.826l.118.354c.118 1.417-1.654 2.716-2.598 3.307-2.244 1.535-2.599.826-5.079 1.299.237.59.473.708 1.063.944 1.299.709.945 2.008 4.252 2.126 2.716.236 3.425-1.299 4.369-3.07l1.89 4.842c0 .354-.118.826-.236 1.18-.945 2.48-3.425 2.362-5.078 3.661.236.827 1.653 1.536 2.361 2.126 1.654 1.181 4.134 1.417 6.378 1.063l8.739 21.021c.118 2.244 1.417 5.787 1.417 7.322 0 2.716-1.299 3.897-3.189 5.078-.944.709-.472 1.063-1.181 1.654-.708-.119-.59-.473-1.181-.945-.236-.354-.944-.709-1.417-.827-4.133-2.008-1.771-7.676-2.48-11.337-.472.236-.472.354-.826.59-3.189-1.062-3.661-2.48-4.252-2.834-.827.591-.945 1.772-1.653 2.244-.945.59-2.598-.118-3.425.708-.472.709-.354 11.22.118 12.401.472 1.181 2.598 2.125 4.015 2.48 2.717.708 3.425-.237 5.551-.827.118 1.063-.591.827-.827 1.771 3.779 0 8.385 1.063 9.684 5.078 1.299 4.016-.945 7.086.472 9.684.827 1.299 1.536.827 2.835.591.236 1.181-.236 1.535-1.063 2.126-.591.472-1.535.944-2.362 1.062-2.126.355-3.543-1.535-4.606-2.125-.59.826-.472 2.716-.118 3.779.472 1.417 1.417 1.535 1.772 2.834-1.181-.118-2.008-.472-2.717-1.063-.59-.472-1.181-1.535-1.771-1.889l-.118 2.362s-.118 0-.236-.119c-.709-1.771-1.418-3.779-2.362-5.904l-9.448-22.793zm-57.985 0h-4.134l-1.18 2.598c-1.89-1.653-3.189-.59-3.307-5.668-.473.472-.473.944-.591 1.535-1.653 6.495-2.007 4.606-4.605 5.314-1.181.355-1.654.945-2.835 1.299-.118-.354-.354-.708-.59-1.063l15.589-36.373c1.653.945 4.251 1.299 6.259.945 2.007-.355 4.605-1.772 4.96-3.898-.945-.472-1.654-.354-2.717-1.062-2.834-2.008-3.779-5.905-1.299-7.677 1.418.591 1.536 2.48 4.724 2.362 1.299 0 3.071-.708 4.134-1.535l-14.881 34.484h3.425c-.472.354-.826.709-1.181.945-.472-.354-.59-.709-1.063-.945-.118 1.771.119 6.495-.708 8.739zm-17.596 32.24c-.827 2.717-1.3 5.079-1.3 6.85s.591 3.425 1.89 4.96l-.118.118c.236 2.362 2.48 1.063 2.126 4.488-.118 2.125.236 4.015-1.417 4.842h-1.772c-.236-.237-.472-.355-.709-.591-1.18-.59-3.07-1.771-3.897-2.716-.944-1.063-.472-1.181-.472-2.598-1.417-.591-2.834-2.126-4.133-3.071l.236-1.889c-2.953-.827-3.425-.236-2.953-3.543-.944-.709-1.653-.709-2.362-1.771.709-1.063 1.3-2.244 2.008-3.543.591-.355.945-.591.945-1.536v-.118a154.472 154.472 0 003.543-7.558c.236.354.118.827-.236 1.772-.355.944.944 3.07 1.653 3.542 2.244.119 1.653-1.653 4.369-1.062 2.008.472 2.362 1.889 2.599 3.424zm30.114-97.665l8.385-19.722c.236 0 .472 0 .708-.118 1.299-.118 2.953-.945 4.134-.827-.355.827-1.535 1.89-2.008 2.48-.472.473-1.889 1.535-2.598 1.89l3.779.118c-.118.354-3.661 2.126-4.251 2.362 1.063 1.299 2.716 2.362 4.723 3.07 3.543 1.181 1.3 1.063 5.433 1.417.354 0 .236 0 .472.118.591.119.355.119.473.119-.473 1.062-2.48 1.535-4.134 1.771l-.354-.709-.236.709h-.827c.118.354.236.59.473.827l-11.928 27.87c-1.417-.472-2.126-.59-3.425-1.181-2.008-1.181-2.952-3.188-1.181-2.716.354.118.236.118.945.118 2.008.118 3.307-.354 4.724-1.535 2.007-1.653 2.362-3.07 1.889-6.495-.59-4.37-2.834-7.44-5.196-9.566zm9.212-21.612l10.038-23.619h4.015l9.684 23.147c-1.772-.59-2.834-1.181-4.724-2.362-.472-.472-1.181-.708-1.771-1.181-.945-.708-.591-.708-2.126-.354-3.779.827-6.614-.945-7.795.236-2.007 1.771-4.841 3.071-7.321 4.133zm57.394 80.188l3.661 8.621c-1.653-.709-2.244-1.654-2.952-4.724-.118-.709-.355-2.244-.709-3.897zm9.684 23.146l2.716 6.496c3.071 7.204 5.787 12.636 8.503 16.415-.354.236-.708.472-1.181.591-1.889.472-4.015.708-5.786 1.535-.591.236-1.3.59-1.89.708-3.425.827-8.149-3.306-10.629-4.015-1.299-.236-2.952-.472-4.251-.708-1.535-.355-2.953-.709-4.37-.945-.236-1.536-.708-3.189-1.299-5.078 3.189 1.181 8.976 2.716 11.219 2.834 1.772 0 4.842-.827 5.905-2.362-.236-.945-.826-1.771-1.181-2.362h-2.007c-.355-.945-1.418-2.126-1.418-3.07 0-.827.473-.945.945-1.299.473-.473.355-1.3.355-2.008 1.417-.472.826.354 1.299-1.181.59-1.772 1.771-3.661 2.834-5.078 0-.118.118-.354.236-.473zm-16.651 37.201h-16.298v-4.37c6.377-.354 10.747-1.417 12.991-3.188 1.063-.945 1.889-1.89 2.48-2.953 0 .472 0 .945-.118 1.417-.473 1.299-1.299 1.536-1.772 2.598.591 1.063 1.536 1.654 2.126 2.717.709 1.299.827 2.48.591 3.779zm-38.736-112.428c-.236-.708-.472-1.535-.709-2.007-.944-2.48-1.771-4.37-2.598-5.787l3.307 7.794z"/>
  <path fill="#e4ba4e" fill-rule="nonzero" d="M9.811 245.64h320.158v5.55H9.811v-5.55zm320.158 82.549H9.811v-5.551h320.158v5.551z"/>
  <path fill="#2b2a29" fill-rule="nonzero" stroke="#e4ba4e" stroke-width="2.83" d="M197.229 173.601H135.11l-10.746 25.155c-2.716 6.141-4.016 10.864-4.016 13.935 0 2.362 1.181 4.606 3.425 6.377 2.362 1.89 7.44 3.071 15.117 3.661v4.37H88.344v-4.37c6.614-1.181 10.983-2.716 12.991-4.606 4.015-3.779 8.385-11.573 13.345-23.146l56.332-132.032h4.015l55.741 133.449c4.488 10.746 8.621 17.714 12.282 20.903 3.661 3.188 8.739 4.96 15.353 5.432v4.37h-63.3v-4.37c6.377-.354 10.747-1.417 12.991-3.188 2.244-1.89 3.307-4.016 3.307-6.732 0-3.425-1.536-8.857-4.724-16.415l-9.448-22.793zm-3.661-8.739l-27.044-64.717-27.753 64.717h54.797z"/>
</svg>
