<svg xmlns="http://www.w3.org/2000/svg" width="15" height="14" viewBox="0 0 15 14"><g><g><path fill="#fff" d="M12.526 1.767c1.28 1.176 1.918 2.6 1.918 4.268 0 1.316-.392 2.44-1.172 3.371-.78.934-1.706 1.4-2.778 1.4-.729 0-1.281-.28-1.655-.843-.497.585-1.095.88-1.795.88-.783 0-1.452-.329-2.01-.991-.556-.66-.834-1.53-.834-2.607 0-1.102.312-2.004.94-2.703.626-.7 1.381-1.05 2.261-1.05.554 0 1.066.19 1.532.57l.118-.425h1.829l-.532 4.342a7.577 7.577 0 0 0-.049.774c0 .271.126.405.378.405.466 0 .914-.291 1.346-.879.431-.585.648-1.322.648-2.204 0-1.29-.471-2.361-1.414-3.212-.943-.85-2.1-1.276-3.47-1.276-1.486 0-2.74.52-3.758 1.553-1.02 1.036-1.532 2.327-1.532 3.874 0 1.425.477 2.666 1.429 3.723.954 1.059 2.3 1.587 4.038 1.587 1.092 0 2.212-.245 3.356-.736a.854.854 0 0 1 1.131.462.855.855 0 0 1-.463 1.105 10.136 10.136 0 0 1-4.02.842c-2.267 0-4.068-.688-5.408-2.064C1.225 10.557.556 8.916.556 7.006c0-1.993.703-3.657 2.107-4.997C4.066.671 5.766.003 7.76.003c1.898 0 3.487.588 4.765 1.764zM8.313 8.336c.323-.437.486-.934.489-1.496 0-.451-.132-.81-.395-1.082-.263-.271-.563-.405-.9-.405-.389 0-.715.182-.977.542-.263.36-.395.834-.395 1.422 0 .476.094.873.283 1.193.186.32.432.48.737.48.45 0 .835-.22 1.158-.654z"/></g></g></svg>