<svg xmlns="http://www.w3.org/2000/svg" width="23" height="25" viewBox="0 0 23 25"><g><g><path fill="#fff" d="M20.554 17.466c-1.452-1.239-2.927-1.992-4.361-.755l-.856.75c-.627.54-1.79 3.075-6.298-2.092C4.537 10.205 7.215 9.4 7.843 8.866l.862-.749c1.428-1.243.888-2.801-.142-4.41l-.62-.973C6.91 1.13 5.783.08 4.354 1.318l-.773.67c-.633.463-2.4 1.957-2.827 4.794-.518 3.405 1.109 7.302 4.841 11.58 3.724 4.281 7.37 6.429 10.824 6.391 2.867-.031 4.604-1.566 5.144-2.124l.78-.676c1.422-1.239.54-2.495-.918-3.737z"/></g></g></svg>