<svg xmlns="http://www.w3.org/2000/svg" width="14" height="15" viewBox="0 0 14 15"><g><g><path fill="#fff" d="M11.938 10.51c-.848-.723-1.71-1.163-2.548-.44l-.5.438c-.366.315-1.045 1.796-3.678-1.222C2.582 6.27 4.147 5.8 4.513 5.488l.504-.438c.834-.726.518-1.636-.083-2.575l-.362-.57C3.968.97 3.31.356 2.475 1.08l-.452.392a4.23 4.23 0 0 0-1.651 2.8C.069 6.259 1.02 8.535 3.2 11.034c2.175 2.5 4.305 3.755 6.322 3.734 1.675-.019 2.69-.915 3.005-1.241l.455-.395c.83-.724.315-1.458-.536-2.183z"/></g></g></svg>