<svg xmlns="http://www.w3.org/2000/svg" width="60" height="57" viewBox="0 0 60 57"><g><g><path fill="#ffbe40" d="M25.818 2.907A2.466 2.466 0 0 0 23.36.436c-3.816 0-7.24.817-10.186 2.426-2.93 1.594-5.425 3.893-7.421 6.815-1.942 2.845-3.41 6.279-4.365 10.207-.935 3.832-1.407 8.169-1.407 12.9V54.04a2.465 2.465 0 0 0 2.46 2.473H23.36a2.467 2.467 0 0 0 2.458-2.473V32.783a2.466 2.466 0 0 0-2.458-2.472h-7.85c.367-9.865 3.003-14.862 7.85-14.862a2.466 2.466 0 0 0 2.458-2.471zm34.169 10.07V2.908a2.468 2.468 0 0 0-2.46-2.471c-3.81 0-7.238.817-10.185 2.426-2.931 1.594-5.425 3.893-7.422 6.815-1.94 2.845-3.408 6.279-4.364 10.207-.934 3.832-1.407 8.174-1.407 12.9V54.04a2.469 2.469 0 0 0 2.459 2.473h20.914a2.465 2.465 0 0 0 2.46-2.473V32.783a2.46 2.46 0 0 0-2.46-2.472h-7.73c.36-9.865 2.955-14.862 7.735-14.862a2.467 2.467 0 0 0 2.46-2.471z"/></g></g></svg>